PathFileType	4	(X/Y/Z)	 s04c0102.trc
DataRate	CameraRate	NumFrames	NumMarkers	Units	OrigDataRate	OrigDataStartFrame	OrigNumFrames
200	200	6	50	mm	200	1001	2000
Frame#	Time	racr			lacr			c7			jug			rlel			rdr			llel			ldr			s2			lic			ric			lasi			rasi			rpsi			lpsi			rgt			lgt			rth1			rth2			rth3			rth4			rlfc			rmfc			rsh1			rsh2			rsh3			rsh4			rlmal			rmmal			rcal			rtoe			rmt5			lth1			lth2			lth4			lth3			llfc			lmfc			lsh1			lsh2			lsh3			lsh4			llmal			lmmal			lcal			ltoe			lmt5			SBIKE			LBIKE			RBIKE			
		X1	Y1	Z1	X2	Y2	Z2	X3	Y3	Z3	X4	Y4	Z4	X5	Y5	Z5	X6	Y6	Z6	X7	Y7	Z7	X8	Y8	Z8	X9	Y9	Z9	X10	Y10	Z10	X11	Y11	Z11	X12	Y12	Z12	X13	Y13	Z13	X14	Y14	Z14	X15	Y15	Z15	X16	Y16	Z16	X17	Y17	Z17	X18	Y18	Z18	X19	Y19	Z19	X20	Y20	Z20	X21	Y21	Z21	X22	Y22	Z22	X23	Y23	Z23	X24	Y24	Z24	X25	Y25	Z25	X26	Y26	Z26	X27	Y27	Z27	X28	Y28	Z28	X29	Y29	Z29	X30	Y30	Z30	X31	Y31	Z31	X32	Y32	Z32	X33	Y33	Z33	X34	Y34	Z34	X35	Y35	Z35	X36	Y36	Z36	X37	Y37	Z37	X38	Y38	Z38	X39	Y39	Z39	X40	Y40	Z40	X41	Y41	Z41	X42	Y42	Z42	X43	Y43	Z43	X44	Y44	Z44	X45	Y45	Z45	X46	Y46	Z46	X47	Y47	Z47	X48	Y48	Z48	X49	Y49	Z49	X50	Y50	Z50	
1001	5.0050	495.445337	1340.285800	-95.030884	515.985810	1336.225685	-361.582270	487.657047	1401.722328	-234.470356	427.023162	1254.649849	-246.064311	439.408630	1049.416948	31.822434	684.799212	922.491058	-73.212958	478.221561	1092.047352	-528.295398	697.243301	916.945049	-460.361199	-65.903363	1172.222071	-291.009544	103.131508	1185.003800	-435.357510	64.859263	1194.848081	-116.192034	140.320757	1138.484063	-386.188133	95.717838	1169.645181	-108.806963	-48.102600	1221.071370	-248.174127	-36.031998	1220.221000	-324.698252	32.903793	1137.325964	-97.589079	66.542882	1083.445533	-461.609870	169.947829	1042.167416	-89.239039	253.780968	1015.744474	-101.398398	313.549260	955.667557	-107.493082	270.392041	1046.941658	-115.297744	420.982915	865.350965	-132.735309	403.176132	841.720949	-244.656350	371.761288	752.625668	-106.741196	363.571407	661.870675	-117.738865	310.730372	594.052382	-122.205008	395.358263	654.016744	-139.932842	266.715835	449.719016	-123.117964	287.404287	457.112826	-208.165052	198.637055	409.912716	-161.832265	497.855596	422.386406	-143.637304	432.542645	391.555130	-89.528572	125.940349	1010.293488	-469.225251	199.317035	963.852187	-468.598169	224.105258	986.556928	-455.614374	241.240987	885.456119	-474.620113	316.360495	747.084537	-454.777611	338.807476	717.470410	-345.934615	257.679825	640.900945	-476.013720	220.112052	566.448704	-450.977795	147.806207	514.762488	-448.337172	242.797259	552.898993	-421.561049	50.558346	405.368139	-440.209228	47.816991	407.021423	-351.595054	-26.490767	429.811144	-397.301676	205.744411	231.968987	-406.670523	127.392176	249.537874	-466.752508	-177.233577	937.370684	-280.758476	-3.224723	85.282480	-484.771175	-15.014629	80.308707	-84.309330	
1002	5.0100	495.344872	1340.362471	-95.174475	514.784943	1335.931355	-361.511715	486.891617	1401.754482	-234.663346	426.303030	1254.628674	-245.939516	441.219461	1049.524204	32.567534	685.696302	922.068513	-73.437815	478.103319	1091.421754	-527.294127	697.440734	916.954084	-460.317042	-65.848082	1168.939383	-290.963300	102.852433	1183.465931	-434.646931	64.903132	1192.062542	-114.948529	140.485311	1137.326193	-385.643027	96.150301	1168.231506	-108.345828	-48.292087	1217.358331	-247.148593	-36.598965	1216.967783	-324.124202	33.150714	1132.291771	-97.208492	67.329541	1081.633930	-461.118781	169.181597	1036.313054	-88.395249	252.490399	1008.659606	-100.836625	311.295799	947.678771	-107.272684	269.708716	1039.715582	-113.995638	418.194287	857.640537	-132.745376	400.002025	833.794010	-244.559353	369.980432	743.605379	-106.635001	363.248626	652.756281	-117.610415	311.175027	584.185555	-121.817828	393.908256	644.891726	-139.604114	269.531086	438.593931	-122.437368	290.199070	446.606532	-207.700469	201.738365	398.582418	-161.043559	500.996318	412.040405	-143.690030	436.229688	381.089953	-89.643125	127.361466	1010.004808	-469.004960	201.400874	964.753898	-469.081109	225.988772	987.920412	-456.483449	244.508765	886.977034	-475.407373	322.210787	750.638167	-454.703025	346.333850	720.547603	-345.911379	261.791894	646.440695	-475.744166	222.709594	572.896750	-450.551141	149.361921	522.789863	-447.816638	245.018791	558.454993	-421.561102	49.889356	415.917310	-439.574390	47.626328	417.786158	-351.098758	-26.710731	441.774688	-396.550712	202.428958	240.609363	-406.776223	124.267500	259.539185	-466.696892	-177.300576	937.183752	-280.475353	-3.205732	85.272046	-484.756546	-14.998041	80.300370	-84.310658	
1003	5.0150	495.297299	1340.504734	-95.277043	514.053582	1336.035688	-361.810219	485.918975	1401.932803	-234.795885	426.434281	1254.339613	-245.971164	443.023526	1049.731820	33.329151	686.377347	921.761314	-73.729000	478.245489	1091.037965	-526.804177	697.585306	917.026580	-460.314329	-66.274295	1166.302132	-290.406611	102.546507	1182.223549	-434.100783	65.268429	1189.500986	-114.270781	140.520157	1136.564596	-384.928784	96.576918	1166.999538	-107.874340	-48.575150	1213.915073	-246.128028	-37.222614	1214.548326	-323.529265	33.371369	1127.822444	-97.088198	68.160796	1080.019958	-460.637841	168.106646	1031.266911	-87.671585	251.069435	1002.653299	-100.296407	308.927214	940.776260	-106.992682	268.810285	1033.465727	-112.974150	415.557523	850.042156	-132.238889	397.128769	826.024621	-244.443234	368.081277	735.114045	-106.264495	362.305724	644.230144	-117.133711	311.298142	574.869787	-121.015776	394.053164	636.783112	-138.567355	272.054302	427.791640	-121.500426	293.439894	437.284505	-206.561309	204.403777	388.098744	-159.990219	503.769832	401.237265	-143.955799	438.893045	370.189819	-89.554605	128.591322	1009.673553	-469.133340	203.263886	965.579896	-469.521045	227.578147	989.008314	-457.055728	247.484194	888.446890	-476.185215	327.867425	754.520671	-454.640693	352.005595	724.483575	-346.005262	265.935013	652.182209	-475.651175	225.469642	579.458862	-450.227231	151.020827	531.011082	-447.522515	247.536548	564.617874	-421.402907	49.590920	426.494968	-439.160371	47.935500	428.238142	-350.604855	-26.619706	453.535319	-395.896833	199.706132	249.530633	-406.807691	121.823460	269.586626	-466.635273	-177.355863	937.075851	-280.339314	-3.210895	85.256270	-484.755589	-14.998748	80.293537	-84.308828	
1004	5.0200	495.332732	1340.726518	-95.350235	513.928815	1336.333370	-362.950768	484.918196	1402.296849	-234.654209	427.246807	1253.992221	-246.044967	444.554628	1050.108548	34.115218	686.806434	921.564424	-73.977404	478.519810	1090.802563	-526.831161	697.637818	917.139267	-460.408057	-67.490457	1164.602344	-290.541832	102.192634	1181.391721	-433.590368	65.535581	1187.649205	-113.396616	140.564120	1136.079424	-384.230474	96.993898	1165.972929	-107.394987	-48.998624	1211.238271	-245.151477	-40.621748	1213.324607	-318.964770	33.729466	1123.863147	-97.770795	68.869975	1078.675435	-460.169062	167.104757	1027.085343	-87.001196	249.634382	997.477302	-99.812252	306.674461	934.745210	-106.722507	267.771344	1028.190166	-112.052695	412.587832	842.245709	-132.554026	397.486376	818.977066	-244.467877	366.399686	726.798077	-105.521496	361.319111	635.915148	-116.409618	311.150143	566.011235	-120.096876	392.545257	628.524360	-137.956873	274.319203	417.522739	-120.825728	295.504620	427.184317	-205.696061	206.591390	378.359160	-158.873111	506.249979	390.152949	-144.509807	441.456277	359.353671	-89.738318	129.697608	1009.418248	-469.376052	204.961438	966.325216	-469.916599	228.973620	990.064991	-457.399121	250.336044	890.003288	-476.964384	333.351307	758.725998	-454.589484	357.485843	728.662627	-345.949044	270.147702	658.216342	-475.613206	228.379131	586.353572	-450.209972	152.880898	539.261061	-447.296478	250.012691	571.590276	-420.710453	49.618755	437.121489	-438.836619	48.253863	439.026728	-350.355127	-26.372297	465.316286	-395.725756	197.528817	258.898104	-406.794016	119.922837	279.672524	-466.614333	-177.419355	937.016374	-280.311193	-3.226386	85.255423	-484.747938	-15.013858	80.295981	-84.305500	
1005	5.0250	495.477901	1340.963204	-95.449192	512.804506	1335.879967	-362.407957	483.887893	1402.802863	-234.507615	426.820788	1254.255139	-245.903183	445.793005	1050.606210	34.961542	686.914934	921.349372	-73.752490	478.736138	1090.791028	-527.383312	697.532734	917.341987	-460.468860	-67.664288	1162.865475	-289.825549	101.749586	1181.019314	-433.056732	65.659018	1186.464889	-112.693126	140.591675	1136.123248	-383.790136	97.399786	1165.165771	-106.909689	-48.901920	1209.856441	-244.565973	-40.871847	1210.507153	-318.867321	33.830440	1121.287211	-97.816768	69.687803	1077.607870	-459.693004	166.122171	1023.756046	-86.365086	248.144776	992.964065	-98.693990	304.402938	929.741278	-106.186764	266.380567	1023.073179	-111.792132	409.657201	835.450580	-131.669488	393.995503	811.436077	-243.861197	364.670972	718.465235	-104.529087	360.483670	627.510649	-115.530073	310.933495	557.346215	-119.054643	392.691404	620.689326	-136.895284	276.349099	407.800332	-120.450160	296.772054	416.695021	-205.602023	208.483608	369.152982	-157.886531	508.355391	378.519022	-145.133599	443.542668	348.345697	-90.024150	130.768959	1009.412719	-469.614567	206.656847	967.456460	-470.430257	230.333152	991.464165	-457.889384	253.104413	891.799973	-477.539975	338.661520	763.578751	-454.600065	362.361833	734.034270	-345.822341	274.259591	664.582175	-475.731150	231.198461	593.522871	-450.143179	154.928929	547.766342	-447.340916	252.591712	578.525214	-420.557856	49.887974	447.600858	-438.791982	48.784928	449.912049	-350.251693	-25.964640	476.957497	-395.804387	196.106397	268.756128	-406.806923	118.649390	290.179092	-466.698839	-177.469825	937.014095	-280.249149	-3.239714	85.240485	-484.757254	-15.030744	80.287338	-84.314429	
1006	5.0300	495.789616	1341.231407	-95.525742	512.430707	1335.899638	-362.690597	482.998312	1403.436416	-234.341849	427.264785	1254.394264	-246.007669	446.650092	1051.184759	35.855648	686.904180	921.290769	-73.865569	478.712471	1090.947092	-528.335346	697.325452	917.550148	-460.524376	-67.623102	1161.953886	-288.956175	101.147532	1181.063651	-432.395994	65.807394	1185.913978	-111.974125	140.539251	1136.541704	-383.341393	97.795460	1164.582221	-106.419603	-48.776127	1209.390763	-244.114292	-42.947224	1208.461324	-314.824620	33.842007	1119.880814	-97.867851	70.302898	1077.084215	-459.301145	165.158555	1021.058143	-85.932855	246.644053	988.801074	-98.159474	301.509958	924.678323	-104.706990	265.414151	1018.649525	-111.223732	406.361971	828.205298	-130.462515	389.840990	804.052137	-243.023806	363.110994	710.120990	-103.524426	359.659108	619.186775	-114.689536	310.727541	548.518745	-118.072399	391.548759	612.799167	-136.084466	278.007937	398.724377	-119.229722	298.033545	407.435620	-204.802092	209.862879	360.417845	-156.968005	510.031341	366.578552	-145.714297	445.042770	337.250114	-90.295839	131.780103	1009.714356	-469.900868	208.306459	969.135510	-470.994180	231.719502	993.643580	-458.862162	255.988635	894.039982	-477.855754	343.874024	769.101414	-454.480853	367.408211	739.467061	-345.795919	278.355169	671.369926	-475.886163	234.107391	600.978890	-450.098959	157.121454	556.485417	-447.377075	255.154117	585.876884	-420.472762	50.380477	458.211838	-438.911926	49.394732	460.948349	-350.269555	-25.470266	488.335454	-396.029181	195.310290	279.008426	-406.768662	117.971521	300.640398	-466.684154	-177.474121	937.003398	-280.303461	-3.258932	85.235832	-484.765290	-15.014516	80.277760	-84.319841	
